# xmcd
#
# Track frame offsets: 
#        150
#        30471
#        52638
#        67728
#        111190
#        156082
#        175287
#        224024
#        246676
#
# Disc length: 3626 seconds
#
# Revision: 0
# Processed by: cddbd v1.5.2PL0 Copyright (c) Steve Scherf et al.
# Submitted via: ExactAudioCopy v0.90b4
#
DISCID=780e2809
DTITLE=Karl W. Davis and Malted Milk - Live in France 2008
DYEAR=2008
DGENRE=Funk
TTITLE0=I can't love you
TTITLE1=Tao of funk
TTITLE2=Woman across the river
TTITLE3=Pamf
TTITLE4=I know it was your love
TTITLE5=Steal Away
TTITLE6=Pork chop big jam
TTITLE7=Drivin' wheel
TTITLE8=Basement "moules frites" Jamin
EXTD=
EXTT0=
EXTT1=
EXTT2=
EXTT3=
EXTT4=
EXTT5=
EXTT6=
EXTT7=
EXTT8=
PLAYORDER=
